<?xml version="1.0" encoding="utf-8"?>
<!-- Generator: Adobe Illustrator 22.1.0, SVG Export Plug-In . SVG Version: 6.00 Build 0)  -->
<svg version="1.1" id="Layer_1" xmlns="http://www.w3.org/2000/svg" xmlns:xlink="http://www.w3.org/1999/xlink" x="0px" y="0px"
	 viewBox="0 0 566.9 566.9" style="enable-background:new 0 0 566.9 566.9;" xml:space="preserve">
<style type="text/css">
	.st0{display:none;}
	.st1{display:none;fill:#D52027;}
	.st2{display:none;fill:none;stroke:#FFFFFF;stroke-width:2;stroke-miterlimit:10;}
</style>
<rect class="st0" width="566.9" height="566.9"/>
<path class="st1" d="M209.6,130.6L206,127l-3.5,3.6l-29.1,29.8l-18.2-18.6l-8.5-8.7v12.1v42.5L102,233.4l-1.4,1.4v2v197.9v4.9h9.9
	v-4.9V238.9l36.3-37.2v233.1v4.9h4.9h33.1h44.9h78h4.9v-4.9V388v-4.9h-9.9v4.9v41.9h-68.1v-64.8v-4.9h-4.9h-44.9h-4.9v4.9v64.8
	h-23.2V191.6l16.8-17.2l76.3,78.1V340v4.9h9.9V340v-89.5v-2l-1.4-1.4l-77.9-79.7l25.7-26.3l96.7,97.8v38.3v4.9h9.9v-4.9v-40.3v-2
	l-1.4-1.4L209.6,130.6z M156.6,157.3l9.9,10.1l-9.9,10.1V157.3z M224.7,370.1v59.8h-35v-59.8H224.7z M309.3,342.1
	C309.3,342.1,309.3,342.1,309.3,342.1C309.3,342.1,309.3,342.1,309.3,342.1z M380.5,587.1c-0.1,0.2-0.1,0.3-0.2,0.5
	c-0.2,0.5-0.3,1.1-0.4,1.6c-0.1,0.4-0.1,0.6-0.1,0.7c0,0,0,0,0,0c0.1,0.6,0.2,1,0.3,1.1c0.1,0.1,0.2,0.2,0.2,0.2
	c0.1,0.1,0.5,0.1,1-0.1c0.5-0.4,0.7-0.6,0.9-0.8c0.1-0.1,0.1-0.2,0.2-0.2c0,0,0,0,0,0l0,0l0,0l0,0l0,0l0,0c0,0,0-0.1,0.1-0.3
	c0.1-0.1,0.1-0.3,0.2-0.5c0-0.1,0-0.2,0-0.3l-1.4-2.6C381,586.6,380.8,586.9,380.5,587.1z M462.7,582.3c-0.7,0.5-1.7,0.9-3.1,1.1
	C460.3,582.9,461.3,582.4,462.7,582.3z M351.1,559c1-1.1,2.8-2.4,4.8-1.5c0,0,0,0,0.1,0c0,0,0,0,0,0c1.4,0.6,2.1,1.8,2.4,3
	c0.3,1.1,0.2,2.4,0.1,3.5c-0.4,2.3-1.4,5-2.7,7.7c-2.4,5.1-5.8,10.7-8.6,14.8c1.6-1.1,3.6-1.9,5.5-1.9c1.6,0,3,0.8,3.9,1.5
	c1,0.7,1.9,1.7,2.7,2.5l0.2,0.3c0.7,0.7,1.3,1.3,1.8,1.7c0.4,0.3,0.6,0.4,0.6,0.4l0,0l0,0c0.1,0,0.2,0,0.3-0.1
	c0.4-0.1,0.9-0.2,1.5-0.4c1.3-0.4,2.9-1,4.7-1.8c2.8-1.3,5.8-2.9,8.1-4.8c0.1-0.2,0.2-0.4,0.4-0.5c0.6-0.8,1.5-1.7,2.8-2
	c0.1,0,0.2,0,0.3-0.1l0,0c0.7-0.1,2.6-0.3,4.4,0.6c2,1,3,3.1,3.1,5.9c10.6,0.3,17-3.7,18.7-5.9c0.7-0.9,1.8-1.2,2.8-0.8
	c1,0.4,1.6,1.4,1.5,2.5l-0.2,2.4c0.5-0.4,0.9-0.8,1.3-1.2c1.8-1.5,3.5-2.4,4.6-2.7c0.1,0,0.2-0.1,0.3-0.1c1.5-0.2,2.8,0.2,3.9,1
	c1,0.7,1.7,1.8,2.2,2.7l0.1,0.1l0,0.1c3.1-2.7,5.8-3.3,7.1-3.3c0.8,0,1.3,0.3,1.5,0.4c0.3,0.2,0.5,0.3,0.7,0.5
	c0.4,0.3,0.8,0.7,1.2,1.1c0.3,0.3,0.5,0.6,0.8,0.9l0,0c0.6,0.6,1.2,1.3,1.9,2c1,1,2.1,1.9,3.1,2.6c1,0.7,1.8,0.9,2.1,0.9
	c6.3,0,9.6-3.5,11.1-5.6c0.4-1.6,1.4-3.5,2.9-5.1c2.2-2.2,5.4-3.5,9.8-2.8c0,0,0.1,0,0.1,0c0.8,0.2,1.6,0.6,2.2,1.3
	c0.6,0.7,0.8,1.5,0.9,2.3c0,1.5-0.7,2.9-1.7,3.9c-1.8,2-5.1,3.5-9.5,3.5c0,0,0.1,0.1,0.1,0.1c0.3,0.4,0.9,0.8,1.7,1.2
	c1.7,0.8,4,1.1,5.7,1.2c10.8-0.9,20.6-6.7,24-9.4c1.1-0.9,2.6-0.7,3.5,0.4c0.9,1.1,0.7,2.6-0.4,3.5c-3.9,3.2-14.7,9.6-26.8,10.5
	c0,0-0.1,0-0.1,0c0,0-0.1,0-0.1,0c-2-0.1-5.1-0.5-7.7-1.6c-1.3-0.6-2.6-1.4-3.6-2.7l-0.1-0.1c-2.6,2.3-6.5,4.3-12.1,4.3
	c-1.8,0-3.5-0.8-4.8-1.7c-1.4-0.9-2.7-2.1-3.8-3.1c-0.8-0.7-1.5-1.5-2.1-2.2l0,0l0,0c-0.1-0.1-0.3-0.3-0.4-0.4
	c-0.1-0.1-0.2-0.2-0.3-0.3c-0.2-0.2-0.3-0.3-0.4-0.4c-1,0.3-3.4,1.4-6,5c-0.6,0.8-1.7,1.2-2.8,0.9c-1-0.3-1.7-1.3-1.7-2.3
	c0-1-0.2-2.4-0.7-3.3c-0.2-0.5-0.4-0.7-0.6-0.8c-0.1,0-0.1-0.1-0.3-0.1c-0.4,0.2-1.3,0.6-2.6,1.7c-1.5,1.2-3.4,3.2-5.5,6.1
	c-0.6,0.9-1.8,1.3-2.9,0.9c-1-0.4-1.7-1.4-1.6-2.5l0.4-4.4c-4.3,2.4-10.8,4.2-18.9,3.8c-0.5,0.8-1.2,1.5-2.4,2.4
	c-0.1,0.1-0.2,0.2-0.3,0.2c-1.5,0.8-3.6,1.2-5.4,0.4c-1.9-0.8-3-2.6-3.4-4.8c-1.5,0.9-3,1.6-4.4,2.2c-2,0.9-3.8,1.6-5.3,2
	c-0.7,0.2-1.4,0.4-2,0.5c-0.3,0.1-0.6,0.1-0.8,0.1c-0.2,0-0.5,0-0.8,0c-1.5-0.1-2.7-0.9-3.5-1.6c-0.8-0.6-1.5-1.4-2.2-2.1v0
	l-0.3-0.3c-0.8-0.8-1.4-1.5-2.1-1.9c-0.6-0.5-0.9-0.5-1-0.5c-0.8,0-2.2,0.6-3.9,1.9c-1.6,1.3-2.9,2.9-3.6,4.2
	c-0.6,1.1-1.8,1.6-3,1.2c-1.1-0.4-1.8-1.5-1.6-2.7c0.5-3,1-5.8,1.5-8.4c0,0,0-0.1,0-0.1c2-10.1,3.9-16.7,5.7-21
	C348.9,562.1,350,560.2,351.1,559z M420.4,514.4l-1.5,2l-10.6,14.5l10.6,14.5l1.5,2l-4,2.9l-1.5-2l-7.3-9.9v8.4v2.5h-4.9v-2.5v-15.9
	v-15.9v-2.5h4.9v2.5v8.4l7.3-9.9l1.5-2L420.4,514.4z M385.5,512.4c1.2,0,2.2,0.8,2.4,2l4.7,22.6l2.1,10l0.5,2.4l-4.8,1l-0.5-2.4
	l-1.7-8h-5.4l-1.7,8l-0.5,2.4l-4.8-1l0.5-2.4l2.1-10l4.7-22.6C383.4,513.3,384.4,512.4,385.5,512.4z M383.8,535h3.4l-1.7-8.1
	L383.8,535z M499.5,513.1c-0.6-1.2-2-1.8-3.3-1.2c-1.2,0.6-1.8,2-1.2,3.3l7,15.4v17.7c0,1.4,1.1,2.5,2.5,2.5c1.4,0,2.5-1.1,2.5-2.5
	v-17.6l7.2-15.4c0.6-1.2,0-2.7-1.2-3.3c-1.2-0.6-2.7,0-3.3,1.2l-5.1,11L499.5,513.1z M365.4,512.5c1.2,0.2,2,1.2,2,2.4v32.4v2.5
	h-4.9v-2.5v-19.1l-3.9,10.2c-0.4,1-1.3,1.6-2.3,1.6c-1,0-1.9-0.6-2.3-1.6l-3.8-10v18.9v2.5h-4.9v-2.5V515c0-1.2,0.9-2.2,2-2.4
	c1.2-0.2,2.3,0.4,2.7,1.6l6.3,16.5l6.4-16.5C363.1,513,364.3,512.3,365.4,512.5z M485.9,512.5c1.2,0.2,2,1.2,2,2.4v32.4v2.5H483
	v-2.5v-19.1l-3.9,10.2c-0.4,1-1.3,1.6-2.3,1.6c-1,0-1.9-0.6-2.3-1.6l-3.8-10v18.9v2.5h-4.9v-2.5V515c0-1.2,0.9-2.2,2-2.4
	c1.2-0.2,2.3,0.4,2.7,1.6l6.3,16.5l6.4-16.5C483.6,513,484.8,512.3,485.9,512.5z M431.1,513.1c-1.4,0-2.5,1.1-2.5,2.5v15.6v15.6
	c0,1.4,1.1,2.5,2.5,2.5h9.4h2.5v-4.9h-2.5h-6.9v-10.7h6.9h2.5v-4.9h-2.5h-6.9V518h6.9h2.5v-4.9h-2.5H431.1z"/>
<g>
	<g>
		<g>
			<path d="M341.1,257.7V235L234.5,127.1l-32.6,33.3l-26.7-27.3v54.6L129.1,235v204.9h9.9V239l36.3-37.2v238h165.8v-32.7h-9.9V430
				h-68.2v-69.7h-54.7V430h-23.2V191.7l16.8-17.2l76.3,78.1V345h9.9v-96.5l-79.3-81.1l25.7-26.3l96.7,97.9v18.7H341.1z M218.2,370.2
				h35V430h-35V370.2z M185.1,177.6v-20.3l9.9,10.1L185.1,177.6z"/>
		</g>
	</g>
	<g>
		<path d="M341.8,274.1c0,0.1,0,0.2,0,0.2c0,0.1-0.1,0.1-0.1,0.2c0,0.1-0.1,0.1-0.1,0.2s-0.1,0.2-0.1,0.4c0,0.2-0.1,0.4-0.1,0.5
			c0,0.1-0.1,0.3-0.1,0.4c0,0.1-0.1,0.3-0.1,0.4c0,0.1,0,0.3,0,0.5c0,0.3,0,0.6,0,0.9c0,0.3,0,0.6-0.1,1c0,0.3-0.1,0.7-0.1,1
			c0,0.4-0.1,0.8-0.1,1.2c-0.1,0.6-0.1,1.2-0.2,1.9c-0.1,0.7-0.1,1.4-0.1,2.1c0,0.2,0,0.4,0,0.7s0,0.5,0,0.8c0,0.3,0,0.6,0,0.9
			c0,0.3,0,0.6,0.1,0.9c0,0,0.1,0.1,0.1,0.1c0,0,0.1,0,0.1,0.1c0.3,0.2,0.4,0.3,0.5,0.4c0.1,0.1,0.2,0.3,0.2,0.5
			c0,0.1,0,0.3-0.1,0.5s-0.2,0.3-0.4,0.5c-0.2,0.1-0.3,0.3-0.5,0.3c-0.2,0.1-0.4,0.1-0.6,0.1c-0.4,0-0.7-0.1-1-0.4
			c-0.3-0.3-0.5-0.6-0.6-1s-0.3-0.8-0.3-1.3c-0.1-0.5-0.1-1-0.1-1.4v-0.4c0-0.2,0-0.5,0.1-0.9c0-0.4,0.1-0.9,0.1-1.4
			c0.1-0.5,0.1-1.1,0.2-1.6c0.1-0.6,0.2-1.1,0.2-1.7c0.1-0.5,0.2-1.1,0.2-1.5s0.1-0.9,0.2-1.2c-0.1,0.1-0.2,0.3-0.4,0.5
			c-0.2,0.2-0.3,0.4-0.5,0.7c-0.2,0.2-0.4,0.5-0.6,0.8c-0.2,0.3-0.4,0.5-0.6,0.8c-0.2,0.3-0.4,0.5-0.5,0.7s-0.3,0.4-0.4,0.6
			c-0.3,0.4-0.5,0.7-0.8,1.1c-0.2,0.4-0.5,0.7-0.8,1.1c0,0-0.1,0.1-0.1,0.1c0,0.1-0.1,0.1-0.2,0.2c-0.1,0.1-0.1,0.2-0.2,0.3
			c-0.1,0.1-0.1,0.1-0.1,0.2c-0.5,0.7-1,1.1-1.6,1.2c-0.4-0.1-0.7-0.2-0.9-0.4c-0.2-0.1-0.4-0.3-0.6-0.5c-0.1-0.2-0.3-0.3-0.4-0.5
			c-0.1-0.2-0.2-0.4-0.4-0.6c-0.1-0.2-0.3-0.5-0.4-0.7c-0.1-0.2-0.2-0.4-0.3-0.5c-0.2-0.3-0.4-0.7-0.5-1s-0.3-0.7-0.5-1.1
			c-0.1-0.3-0.2-0.6-0.3-0.8c-0.1-0.2-0.1-0.4-0.2-0.6c-0.1-0.2-0.1-0.4-0.2-0.6c-0.1-0.2-0.1-0.4-0.2-0.7c0,0,0,0.2-0.1,0.4
			s-0.1,0.4-0.2,0.7c-0.1,0.3-0.1,0.6-0.2,0.9s-0.2,0.7-0.2,1c-0.1,0.4-0.2,0.7-0.2,1c-0.1,0.3-0.1,0.6-0.2,0.9
			c-0.1,0.3-0.1,0.5-0.2,0.7c0,0.2-0.1,0.3-0.1,0.3c-0.1,0.6-0.2,1.1-0.2,1.6c0,0.1,0,0.3,0,0.5c0,0.2,0,0.5,0,0.7s0,0.5,0,0.7
			c0,0.2,0,0.4,0,0.5c0,0.1,0,0.2-0.1,0.4c-0.1,0.2-0.2,0.3-0.3,0.4c-0.1,0.1-0.2,0.3-0.4,0.4s-0.3,0.2-0.5,0.2c-0.2,0-0.4,0-0.6,0
			c-0.2,0-0.3-0.1-0.4-0.1c-0.1-0.1-0.2-0.2-0.3-0.3s-0.2-0.3-0.3-0.5c0-0.1,0-0.1-0.1-0.2c0-0.1,0-0.2,0-0.3c0-0.1,0-0.3,0-0.4
			c0-0.2,0-0.4,0-0.6c0-0.1,0-0.2,0.1-0.5s0.1-0.5,0.2-0.8s0.2-0.7,0.3-1.1c0.1-0.4,0.2-0.8,0.3-1.1c0.1-0.4,0.2-0.7,0.3-1
			c0.1-0.3,0.2-0.6,0.2-0.8c0.1-0.3,0.2-0.7,0.3-1.1s0.2-0.8,0.3-1.1s0.2-0.8,0.3-1.1s0.2-0.7,0.3-1.1c0-0.4,0.1-0.6,0.1-0.8
			c0-0.2,0.1-0.4,0.2-0.6c0.1-0.2,0.2-0.4,0.3-0.6c0.1-0.2,0.2-0.3,0.4-0.4s0.3-0.2,0.5-0.2c0.6,0,1,0.1,1.4,0.2
			c0.3,0.1,0.6,0.3,0.8,0.6c0.2,0.3,0.4,0.6,0.5,1c0.1,0.4,0.2,0.9,0.4,1.5c0,0.2,0.1,0.3,0.1,0.4c0,0.1,0.1,0.3,0.2,0.4
			c0.2,0.7,0.5,1.5,0.9,2.2c0.3,0.7,0.7,1.4,1.2,2.1c0.2-0.1,0.3-0.3,0.5-0.6c0.2-0.2,0.3-0.5,0.5-0.8c0.2-0.3,0.3-0.6,0.5-0.8
			s0.4-0.5,0.6-0.7c0.1-0.1,0.2-0.2,0.4-0.4c0.2-0.2,0.4-0.4,0.6-0.7s0.5-0.6,0.7-0.9c0.2-0.3,0.5-0.6,0.7-0.9
			c0.2-0.3,0.4-0.5,0.6-0.7c0.2-0.2,0.3-0.4,0.4-0.5c0.1-0.1,0.1-0.2,0.2-0.2c0-0.1,0.1-0.1,0.2-0.2c0.1-0.1,0.2-0.3,0.4-0.5
			c0.2-0.2,0.4-0.5,0.6-0.7c0.2-0.3,0.4-0.5,0.6-0.7c0.2-0.2,0.3-0.4,0.4-0.5c0.1-0.1,0.3-0.2,0.6-0.2c0.1,0,0.3,0,0.5,0.1
			c0.2,0.1,0.3,0.2,0.5,0.3s0.3,0.3,0.4,0.4S341.8,274.1,341.8,274.1L341.8,274.1z"/>
		<path d="M359.4,281.1c0,0.1-0.1,0.3-0.2,0.6c-0.1,0.3-0.3,0.6-0.4,1s-0.4,0.8-0.7,1.3c-0.3,0.5-0.6,0.9-0.9,1.3
			c-0.4,0.5-0.8,1-1.2,1.5c-0.4,0.4-0.8,0.8-1.2,1.1s-0.8,0.5-1.1,0.7s-0.6,0.2-0.9,0.2c-0.4,0-0.7-0.1-1-0.2s-0.5-0.3-0.7-0.5
			c-0.2-0.2-0.3-0.5-0.4-0.8s-0.2-0.6-0.2-1c-0.3,0.4-0.6,0.8-0.9,1.3c-0.3,0.4-0.7,0.8-1,1.1c-0.4,0.3-0.7,0.6-1.1,0.8
			c-0.4,0.2-0.7,0.3-1.1,0.3c-0.2,0-0.5,0-0.8-0.1c-0.3-0.1-0.5-0.2-0.7-0.4c-0.2-0.2-0.4-0.4-0.6-0.7c-0.1-0.3-0.2-0.6-0.2-1
			c0-0.3,0-0.7,0.1-1s0.2-0.8,0.3-1.2c0.1-0.4,0.3-0.9,0.5-1.3c0.2-0.4,0.4-0.8,0.5-1.2c0.2-0.4,0.4-0.7,0.6-1.1
			c0.2-0.3,0.4-0.6,0.6-0.8c0.2-0.2,0.5-0.5,0.8-0.7c0.3-0.2,0.6-0.4,1-0.6c0.4-0.2,0.7-0.3,1.1-0.5c0.4-0.1,0.8-0.2,1.3-0.2
			c0.5,0,0.8,0.1,1,0.4c0.2,0.2,0.4,0.6,0.5,1.1c0,0,0,0.1,0.1,0.2c0,0.1,0.1,0.1,0.1,0.2c0.1,0.1,0.1,0.2,0.1,0.2
			c0,0.1,0.1,0.2,0.1,0.2c0,0.1,0,0.2-0.1,0.4c0,0.2-0.1,0.3-0.2,0.5c-0.1,0.2-0.1,0.4-0.2,0.6c0,0.2-0.1,0.5-0.1,0.8
			c0,0.4,0,0.8,0,1.2c0,0.4,0,0.7,0.1,1c0.1,0.3,0.1,0.5,0.3,0.7s0.3,0.3,0.5,0.3c0.2,0,0.4-0.1,0.6-0.2c0.2-0.1,0.5-0.3,0.8-0.5
			c0.3-0.2,0.6-0.5,0.9-0.8c0.3-0.3,0.6-0.7,0.9-1c0.2-0.3,0.4-0.6,0.6-0.9c0.2-0.3,0.4-0.6,0.5-0.9c0.2-0.3,0.3-0.5,0.5-0.8
			s0.3-0.5,0.4-0.6c0.1-0.2,0.3-0.3,0.4-0.4c0.1-0.1,0.3-0.2,0.4-0.2c0.1,0,0.2,0,0.2,0.1c0.1,0.1,0.1,0.2,0.1,0.5c0,0,0,0.1,0,0.1
			C359.4,281.1,359.4,281.1,359.4,281.1L359.4,281.1z M350.5,281.4c0,0,0-0.1,0-0.1c0-0.1-0.1-0.1-0.1-0.2c0,0-0.1-0.1-0.1-0.1
			c0,0-0.1,0-0.1,0c-0.2,0-0.3,0-0.5,0.1c-0.2,0.1-0.3,0.1-0.4,0.2s-0.3,0.2-0.4,0.3c-0.1,0.1-0.2,0.2-0.3,0.4
			c-0.2,0.3-0.5,0.7-0.7,1.1c-0.3,0.5-0.5,0.9-0.7,1.4c-0.2,0.5-0.4,1-0.5,1.5c-0.1,0.5-0.2,0.9-0.2,1.3c0,0.1,0.1,0.2,0.2,0.3
			s0.2,0.1,0.4,0.1c0.1,0,0.3-0.1,0.5-0.2s0.4-0.3,0.6-0.6c0.2-0.2,0.4-0.5,0.7-0.8c0.2-0.3,0.4-0.6,0.6-0.9
			c0.3-0.6,0.6-1.2,0.9-1.8C350.4,282.7,350.5,282,350.5,281.4z"/>
		<path d="M372.3,285.3c0,0.1,0,0.2-0.1,0.3c-0.1,0.1-0.2,0.2-0.3,0.4c-0.1,0.1-0.3,0.3-0.4,0.4s-0.3,0.3-0.5,0.4
			c-0.3,0.2-0.6,0.4-0.8,0.5c-0.3,0.2-0.6,0.3-0.9,0.5s-0.7,0.2-1.1,0.3c-0.4,0.1-0.8,0.1-1.3,0.1c-0.4,0-0.7,0-1.1-0.1
			c-0.3-0.1-0.7-0.2-1-0.3c-0.3-0.1-0.6-0.3-0.9-0.5c-0.3-0.2-0.6-0.3-0.8-0.5c-0.2-0.2-0.5-0.3-0.7-0.4c-0.2-0.1-0.4-0.3-0.7-0.4
			c-0.2,0.2-0.3,0.4-0.5,0.7c-0.2,0.3-0.3,0.5-0.5,0.8s-0.3,0.5-0.4,0.8c-0.1,0.3-0.2,0.5-0.3,0.7c-0.1,0.2-0.1,0.4-0.2,0.5
			c-0.1,0.2-0.1,0.3-0.2,0.4c-0.1,0.1-0.1,0.2-0.2,0.3c-0.1,0.1-0.2,0.1-0.3,0.1c-0.2,0-0.4,0-0.5-0.1c-0.2-0.1-0.3-0.2-0.4-0.3
			c-0.1-0.1-0.2-0.3-0.3-0.6c-0.1-0.2-0.1-0.5-0.1-0.8c0-0.4,0-0.9,0.1-1.4s0.2-1.1,0.3-1.7c0.1-0.6,0.2-1.2,0.4-1.9
			s0.3-1.2,0.4-1.8c0-0.1,0-0.2,0.1-0.5s0.1-0.6,0.2-1c0.1-0.4,0.2-0.9,0.3-1.3c0.1-0.5,0.2-0.9,0.3-1.4c0.1-0.4,0.2-0.9,0.2-1.2
			c0.1-0.4,0.1-0.6,0.1-0.8c0-0.1,0-0.2,0.1-0.4c0-0.2,0.1-0.4,0.2-0.5s0.3-0.3,0.5-0.5c0.2-0.1,0.5-0.2,0.9-0.2
			c0.1,0,0.3,0,0.4,0.1c0.1,0.1,0.2,0.2,0.3,0.3c0.1,0.1,0.1,0.3,0.2,0.4s0.1,0.3,0.1,0.5c0,0.1,0,0.2,0,0.4c0,0.2-0.1,0.4-0.1,0.7
			c-0.1,0.3-0.1,0.6-0.2,0.9c-0.1,0.3-0.1,0.7-0.2,1s-0.2,0.6-0.2,0.9c-0.1,0.3-0.1,0.6-0.2,0.8c-0.1,0.4-0.2,0.9-0.4,1.4
			s-0.3,1-0.4,1.5c-0.1,0.5-0.3,1-0.4,1.4c-0.1,0.5-0.2,0.9-0.3,1.2c0.1-0.1,0.2-0.3,0.4-0.5c0.2-0.2,0.3-0.4,0.5-0.7
			c0.2-0.2,0.3-0.5,0.5-0.7c0.2-0.2,0.3-0.4,0.4-0.5c0.4-0.5,0.8-1,1.3-1.5s0.8-0.9,1.2-1.3c0.4-0.4,0.7-0.7,1.1-1
			c0.3-0.2,0.6-0.4,0.8-0.4c0.1,0,0.2,0,0.3,0.1c0.1,0,0.2,0.1,0.3,0.2c0.1,0.1,0.2,0.2,0.3,0.3c0.1,0.1,0.1,0.2,0.1,0.4
			c0,0.1,0,0.3-0.1,0.5c-0.1,0.2-0.2,0.4-0.4,0.6s-0.3,0.4-0.6,0.6c-0.2,0.2-0.4,0.4-0.6,0.6c-0.3,0.2-0.5,0.4-0.8,0.7
			c-0.3,0.2-0.5,0.5-0.7,0.7c-0.2,0.2-0.4,0.4-0.6,0.6c-0.2,0.2-0.3,0.4-0.5,0.5c0.3,0.2,0.6,0.4,0.9,0.6s0.7,0.4,1.1,0.6
			c0.4,0.2,0.8,0.3,1.1,0.5s0.7,0.2,1,0.2c0.4,0,0.8,0,1.2-0.1c0.4-0.1,0.7-0.1,1-0.2c0.3-0.1,0.5-0.2,0.8-0.3s0.5-0.2,0.7-0.3
			c0.1-0.1,0.2-0.1,0.3-0.2c0.1-0.1,0.2-0.1,0.3-0.2c0.1-0.1,0.2-0.1,0.3-0.1c0.1,0,0.2,0,0.3,0c0.1,0,0.2,0,0.3,0.1
			C372.2,285,372.3,285.1,372.3,285.3z"/>
		<path d="M382,284.5c0,0.3-0.1,0.6-0.3,0.9c-0.2,0.3-0.5,0.7-0.8,1c-0.4,0.4-0.8,0.7-1.2,1.1c-0.5,0.3-0.9,0.6-1.4,0.9
			c-0.5,0.2-1,0.4-1.5,0.6s-1,0.2-1.5,0.2c-0.6,0-1.1-0.1-1.6-0.3c-0.5-0.2-0.8-0.5-1.2-0.8c-0.3-0.4-0.6-0.8-0.7-1.3
			s-0.3-1.2-0.3-1.9c0-0.4,0-0.8,0.1-1.3c0.1-0.4,0.2-0.9,0.4-1.3c0.2-0.4,0.3-0.8,0.6-1.2c0.2-0.4,0.5-0.8,0.8-1.1
			c0.2-0.2,0.4-0.4,0.6-0.7c0.2-0.2,0.5-0.4,0.8-0.6c0.3-0.2,0.6-0.3,1-0.4c0.4-0.1,0.7-0.2,1.1-0.2c0.3,0,0.6,0.1,0.9,0.2
			c0.3,0.1,0.5,0.3,0.7,0.5c0.2,0.2,0.3,0.4,0.4,0.6c0.1,0.2,0.1,0.5,0.1,0.7c0,0.5-0.1,1.1-0.4,1.5c-0.2,0.5-0.6,0.9-1,1.4
			c-0.4,0.4-0.9,0.9-1.5,1.3c-0.6,0.4-1.2,0.8-2,1.3c0,0-0.1,0-0.2,0.1s-0.1,0.1-0.1,0.1c0,0.1,0,0.3,0.1,0.5
			c0.1,0.2,0.2,0.3,0.3,0.5c0.1,0.1,0.3,0.3,0.5,0.4c0.2,0.1,0.5,0.1,0.7,0.1c0.4,0,0.9-0.1,1.3-0.2c0.4-0.1,0.9-0.3,1.3-0.5
			c0.4-0.2,0.9-0.5,1.3-0.8c0.4-0.3,0.8-0.7,1.2-1.1c0.1-0.2,0.3-0.3,0.4-0.3s0.3-0.1,0.4-0.1s0.2,0,0.3,0.1
			C381.9,284.1,382,284.2,382,284.5z M376.9,280.5c0-0.1,0-0.2-0.1-0.3c0-0.1-0.1-0.1-0.1-0.2c-0.1,0-0.1-0.1-0.2-0.1s-0.1,0-0.1,0
			c-0.3,0-0.6,0.1-0.9,0.4c-0.3,0.2-0.5,0.6-0.7,0.9s-0.4,0.8-0.6,1.2c-0.2,0.5-0.3,0.9-0.4,1.3c0.4-0.3,0.8-0.6,1.2-0.9
			c0.4-0.3,0.7-0.5,1-0.8c0.3-0.3,0.5-0.5,0.6-0.8C376.8,281,376.9,280.8,376.9,280.5z"/>
		<path d="M415,282.3c0,0.1,0,0.3-0.1,0.5c-0.1,0.2-0.2,0.4-0.3,0.6c-0.5,0.7-1,1.3-1.4,1.8s-1,1-1.5,1.4c-0.2,0.1-0.3,0.3-0.5,0.4
			c-0.2,0.2-0.4,0.3-0.7,0.4s-0.5,0.2-0.7,0.3c-0.2,0.1-0.5,0.1-0.7,0.1c-0.3,0-0.5-0.1-0.8-0.2s-0.5-0.3-0.7-0.5
			c-0.2-0.2-0.4-0.4-0.6-0.7s-0.3-0.5-0.5-0.8c-0.1-0.3-0.3-0.5-0.4-0.8s-0.2-0.5-0.3-0.7c-0.1-0.2-0.2-0.4-0.2-0.6
			c-0.1-0.2-0.1-0.3-0.2-0.4s-0.1-0.2-0.1-0.3c0-0.1-0.1-0.1-0.1-0.1c-0.2,0-0.4,0.2-0.7,0.7c-0.3,0.5-0.7,1.2-1.2,2
			c-0.3,0.5-0.5,0.9-0.8,1.3c-0.2,0.4-0.5,0.7-0.7,1c-0.2,0.3-0.4,0.5-0.7,0.6c-0.2,0.1-0.4,0.2-0.6,0.2c-0.3,0-0.6-0.1-0.8-0.2
			c-0.2-0.1-0.4-0.3-0.5-0.6c-0.1-0.3-0.2-0.6-0.2-1c0-0.4-0.1-0.9-0.1-1.4c-0.1-1.7-0.2-2.6-0.3-2.6c-0.1,0-0.1,0-0.3,0.1
			c-0.1,0.1-0.2,0.2-0.4,0.4c-0.3,0.4-0.5,0.7-0.8,1.1c-0.2,0.3-0.5,0.7-0.7,1c-0.2,0.3-0.4,0.7-0.7,1c-0.2,0.3-0.4,0.7-0.6,1.1
			c-0.1,0.2-0.3,0.5-0.4,0.7c-0.2,0.2-0.3,0.4-0.5,0.6s-0.3,0.3-0.5,0.4c-0.2,0.1-0.3,0.2-0.4,0.2c-0.4,0-0.7-0.1-0.8-0.3
			c-0.2-0.2-0.3-0.4-0.4-0.8c-0.1-0.3-0.1-0.6-0.2-0.9c0-0.3,0-0.6,0-1c0-0.2,0-0.5,0-0.7c0-0.2,0-0.4,0.1-0.6
			c0-0.2,0.1-0.5,0.1-0.7s0.1-0.5,0.2-0.9c0.1-0.5,0.2-0.9,0.2-1.2c0.1-0.3,0.1-0.6,0.1-0.8c0-0.2,0.1-0.4,0.1-0.6
			c0-0.2,0-0.3,0-0.5c0-0.2,0.1-0.5,0.2-0.6c0.2-0.2,0.4-0.3,0.7-0.3c0.5,0,0.8,0.1,1,0.4s0.3,0.7,0.3,1.2c0,0.2,0,0.4-0.1,0.6
			c0,0.2-0.1,0.5-0.2,0.8c-0.1,0.3-0.2,0.6-0.2,0.9s-0.2,0.6-0.2,0.9c-0.1,0.3-0.1,0.6-0.2,0.9c-0.1,0.3-0.1,0.5-0.1,0.7
			c0.3-0.4,0.5-0.9,0.8-1.3s0.6-0.9,0.9-1.4c0.3-0.4,0.6-0.8,0.8-1.2c0.3-0.4,0.5-0.7,0.7-0.9c0.3-0.4,0.7-0.6,1-0.8
			c0.4-0.2,0.8-0.3,1.1-0.3c0.3,0,0.6,0.1,0.8,0.4c0.2,0.2,0.4,0.5,0.5,0.9c0.1,0.4,0.2,0.8,0.2,1.3c0.1,0.5,0.1,1,0.1,1.5
			c0,0.1,0,0.2,0,0.3s0,0.3,0,0.5c0,0.2,0,0.3,0.1,0.4c0,0.1,0.1,0.2,0.1,0.2c0,0,0.1-0.1,0.1-0.2c0.1-0.1,0.2-0.3,0.2-0.5
			c0.1-0.2,0.2-0.4,0.3-0.6c0.1-0.2,0.2-0.4,0.3-0.6c0.1-0.2,0.2-0.4,0.2-0.5c0.1-0.1,0.1-0.2,0.1-0.3c0.2-0.4,0.4-0.8,0.7-1.1
			c0.2-0.3,0.5-0.6,0.7-0.8c0.5-0.6,1.1-0.9,1.6-0.9c0.6,0,1,0.2,1.2,0.5c0.1,0.2,0.2,0.4,0.3,0.6c0.1,0.3,0.2,0.5,0.3,0.8
			c0.1,0.3,0.2,0.5,0.3,0.8c0.1,0.3,0.2,0.5,0.3,0.7c0.1,0.2,0.2,0.4,0.3,0.7c0.1,0.2,0.3,0.4,0.4,0.6c0.1,0.2,0.3,0.3,0.5,0.4
			c0.2,0.1,0.3,0.2,0.4,0.2c0.2,0,0.4-0.1,0.7-0.2s0.7-0.4,1.1-0.8c0.4-0.4,0.9-0.8,1.3-1.2c0.4-0.4,0.9-0.9,1.4-1.4
			c0.1-0.1,0.3-0.2,0.5-0.2c0.1,0,0.2,0,0.2,0.1C415,282.1,415,282.2,415,282.3z"/>
		<path d="M424.2,280.9c0,0.1,0,0.3-0.1,0.6c-0.1,0.3-0.2,0.6-0.3,0.9c-0.1,0.3-0.2,0.7-0.4,1.1c-0.2,0.4-0.3,0.8-0.5,1.3
			s-0.3,0.9-0.4,1.3c-0.1,0.4-0.3,0.9-0.4,1.2c0,0,0,0.1-0.1,0.3s-0.1,0.4-0.2,0.7s-0.2,0.6-0.3,0.9c-0.1,0.3-0.2,0.7-0.3,1
			c-0.1,0.4-0.2,0.7-0.3,1c-0.1,0.3-0.2,0.6-0.3,0.9c-0.1,0.3-0.2,0.5-0.2,0.7c-0.1,0.2-0.1,0.3-0.1,0.3c-0.1,0.2-0.1,0.4-0.2,0.7
			c-0.1,0.3-0.2,0.5-0.3,0.7s-0.3,0.4-0.5,0.6c-0.2,0.2-0.4,0.2-0.7,0.2c-0.2,0-0.3,0-0.5-0.1s-0.3-0.2-0.3-0.3s-0.2-0.2-0.2-0.4
			c-0.1-0.1-0.1-0.3-0.1-0.4c0-0.2,0-0.4,0.1-0.6c0.1-0.3,0.2-0.5,0.3-0.8c0.1-0.3,0.2-0.6,0.4-1c0.1-0.3,0.3-0.7,0.4-1
			c0.1-0.3,0.2-0.5,0.3-0.7s0.2-0.5,0.3-0.8s0.2-0.6,0.3-0.8c0.1-0.3,0.2-0.5,0.3-0.8c0.1-0.3,0.2-0.5,0.2-0.6
			c-0.2,0.1-0.3,0.3-0.6,0.4c-0.2,0.2-0.4,0.3-0.7,0.5s-0.5,0.3-0.7,0.5c-0.3,0.1-0.5,0.3-0.8,0.4c-0.3,0.1-0.5,0.2-0.8,0.3
			s-0.5,0.1-0.7,0.1c-0.5,0-0.9-0.1-1.3-0.2s-0.7-0.4-0.9-0.6s-0.4-0.5-0.6-0.8c-0.1-0.3-0.2-0.6-0.2-0.9c0-0.2,0-0.5,0.1-0.8
			c0-0.3,0.1-0.6,0.2-1c0.1-0.4,0.2-0.7,0.3-1.1c0.1-0.4,0.2-0.8,0.4-1.1s0.3-0.7,0.4-1c0.1-0.3,0.3-0.6,0.4-0.8
			c0.2-0.3,0.4-0.5,0.6-0.7c0.2-0.1,0.4-0.2,0.6-0.2c0.2,0,0.4,0,0.5,0.1c0.1,0.1,0.2,0.2,0.3,0.3s0.1,0.2,0.2,0.4
			c0,0.1,0,0.3,0,0.5c0,0.1,0,0.2-0.1,0.4c-0.1,0.2-0.2,0.4-0.3,0.7c-0.1,0.2-0.2,0.5-0.4,0.8c-0.1,0.3-0.3,0.6-0.4,1
			c-0.1,0.3-0.2,0.7-0.3,1.1s-0.1,0.8-0.1,1.1c0,0.1,0,0.2,0.1,0.3c0.1,0.1,0.2,0.2,0.2,0.2c0.1,0.1,0.2,0.1,0.3,0.1s0.2,0,0.2,0
			c0.3,0,0.5-0.1,0.8-0.2c0.3-0.1,0.5-0.2,0.8-0.4c0.3-0.2,0.5-0.3,0.8-0.5s0.5-0.3,0.7-0.5c0.2-0.1,0.4-0.3,0.6-0.5
			c0.2-0.2,0.4-0.4,0.6-0.6c0.1-0.1,0.2-0.3,0.3-0.6s0.2-0.6,0.3-0.9c0.1-0.3,0.2-0.7,0.4-1.1c0.1-0.4,0.2-0.7,0.3-1
			c0.1-0.2,0.1-0.4,0.2-0.6c0.1-0.2,0.2-0.3,0.3-0.4c0.1-0.1,0.2-0.2,0.4-0.2c0.1-0.1,0.2-0.1,0.3-0.1c0.2,0,0.4,0,0.6,0.1
			s0.3,0.1,0.3,0.2s0.1,0.2,0.2,0.4C424.2,280.4,424.2,280.6,424.2,280.9L424.2,280.9z"/>
	</g>
	<g>
		<path d="M323.3,352.7h9.9c6.3,0,9.3,3.5,9.3,9.9v20.2c0,6.4-3.1,9.9-9.3,9.9h-9.9V352.7z M329.6,358.4v28.5h3.5c2,0,3.2-1,3.2-3.9
			v-20.8c0-2.9-1.2-3.9-3.2-3.9H329.6z"/>
		<path d="M355,369.5h8.6v5.7H355v11.7h10.8v5.7h-17.1v-39.9h17.1v5.7H355V369.5z"/>
		<path d="M390.1,377.7v5.3c0,6.4-3.2,10-9.3,10c-6.2,0-9.3-3.6-9.3-10v-20.8c0-6.4,3.2-10,9.3-10c6.2,0,9.3,3.6,9.3,10v3.9h-5.9
			v-4.3c0-2.9-1.3-3.9-3.3-3.9s-3.2,1.1-3.2,3.9v21.5c0,2.8,1.3,3.9,3.2,3.9s3.3-1,3.3-3.9v-5.7H390.1z"/>
		<path d="M395.5,362.2c0-6.4,3.4-10,9.5-10c6.2,0,9.5,3.6,9.5,10V383c0,6.4-3.4,10-9.5,10c-6.2,0-9.5-3.6-9.5-10V362.2z
			 M401.8,383.4c0,2.8,1.3,3.9,3.2,3.9s3.3-1.1,3.3-3.9v-21.5c0-2.9-1.3-3.9-3.3-3.9s-3.2,1.1-3.2,3.9V383.4z"/>
		<path d="M433.9,392.6c-0.3-1-0.6-1.7-0.6-4.9v-6.3c0-3.7-1.3-5.1-4.1-5.1h-2.2v16.2h-6.3v-39.9h9.5c6.5,0,9.3,3,9.3,9.2v3.1
			c0,4.1-1.3,6.8-4.1,8.1c3.1,1.3,4.2,4.3,4.2,8.5v6.2c0,1.9,0.1,3.4,0.7,4.8H433.9z M427.1,358.4v12.3h2.5c2.3,0,3.8-1,3.8-4.2
			v-3.9c0-2.9-1-4.1-3.2-4.1H427.1z"/>
	</g>
	<g>
		<path d="M328.9,341.6h-6.3v-39.9h6.3v17.1h7.1v-17.1h6.4v39.9h-6.4v-17.1h-7.1V341.6z"/>
		<path d="M348.7,311.2c0-6.4,3.4-10,9.5-10c6.2,0,9.5,3.6,9.5,10V332c0,6.4-3.4,10-9.5,10c-6.2,0-9.5-3.6-9.5-10V311.2z
			 M354.9,332.4c0,2.8,1.3,3.9,3.2,3.9s3.3-1.1,3.3-3.9v-21.5c0-2.9-1.3-3.9-3.3-3.9s-3.2,1.1-3.2,3.9V332.4z"/>
		<path d="M387.2,330l4.3-28.3h8.7v39.9h-5.9v-28.6l-4.3,28.6H384l-4.7-28.2v28.2h-5.5v-39.9h8.7L387.2,330z"/>
		<path d="M413.2,318.5h8.6v5.7h-8.6v11.7H424v5.7h-17.1v-39.9H424v5.7h-10.8V318.5z"/>
	</g>
</g>
<path class="st2" d="M293,363c0,0,7.8-23.2,1-13.3"/>
</svg>
